HIERARCHY
ROOT Root
{
  OFFSET 7.84682 11.8871 -10.9721
  CHANNELS 6 Xposition Yposition Zposition Zrotation Xrotation Yrotation
  JOINT Spine
  {
    OFFSET 5.3114 0 0
    CHANNELS 3 Zrotation Xrotation Yrotation
    JOINT Spine1
    {
      OFFSET 2.79004 0 0
      CHANNELS 3 Zrotation Xrotation Yrotation
      JOINT Neck
      {
        OFFSET 1.43377 0 0
        CHANNELS 3 Zrotation Xrotation Yrotation
        JOINT Head
        {
          OFFSET 1.86043 0 0
          CHANNELS 3 Zrotation Xrotation Yrotation
          End Site
          {
            OFFSET 0 0 0
          }
        }
      }
      JOINT LeftArm
      {
        OFFSET 0.0387506 0 2.55754
        CHANNELS 3 Zrotation Xrotation Yrotation
        JOINT LeftForeArm
        {
          OFFSET 4.24845 0 0
          CHANNELS 3 Zrotation Xrotation Yrotation
          JOINT LeftHand
          {
            OFFSET 4.01008 0 0
            CHANNELS 3 Zrotation Xrotation Yrotation
            End Site
            {
              OFFSET 0 0 0
            }
          }
        }
      }
      JOINT RightArm
      {
        OFFSET 0.0387506 0 -2.55754
        CHANNELS 3 Zrotation Xrotation Yrotation
        JOINT RightForeArm
        {
          OFFSET -4.24845 0 0
          CHANNELS 3 Zrotation Xrotation Yrotation
          JOINT RightHand
          {
            OFFSET -4.01009 0 0
            CHANNELS 3 Zrotation Xrotation Yrotation
            End Site
            {
              OFFSET 0 0 0
            }
          }
        }
      }
    }
  }
  JOINT LeftUpLeg
  {
    OFFSET -1.23318 0 2.05692
    CHANNELS 3 Zrotation Xrotation Yrotation
    JOINT LeftLeg
    {
      OFFSET 5.46397 0 0
      CHANNELS 3 Zrotation Xrotation Yrotation
      JOINT LeftFoot
      {
        OFFSET 4.68898 0 0
        CHANNELS 3 Zrotation Xrotation Yrotation
        End Site
        {
          OFFSET 0 0 0
        }
      }
    }
  }
  JOINT RightUpLeg
  {
    OFFSET -1.24454 0 -2.05007
    CHANNELS 3 Zrotation Xrotation Yrotation
    JOINT RightLeg
    {
      OFFSET -5.46397 0 0
      CHANNELS 3 Zrotation Xrotation Yrotation
      JOINT RightFoot
      {
        OFFSET -4.68901 0 0
        CHANNELS 3 Zrotation Xrotation Yrotation
        End Site
        {
          OFFSET 0 0 0
        }
      }
    }
  }
}
MOTION
Frames:	10
Frame Time:	0.00833333
7.84682 11.8871 -10.9721 -0 90 90 9.69808e-018 1.34041e-020 0.158382 1.41245e-030 7.06225e-031 2.48481e-017 -7.30747e-017 7.61111e-019 -1.19349 3.40995e-017 1.65719e-019 0.556895 -2.12238e-008 -1.53545e-005 -90.1584 -2.50273e-005 -2.47192e-012 6.55612e-006 1.52588e-005 6.984e-015 174.465 180 -4.60993e-005 -89.8417 -5.49628e-005 -2.25992e-011 3.612e-005 1.52588e-005 6.9839e-015 174.457 -3.96044 -0.249587 -175.995 -8.59119 0.176515 -0.869964 4.62471 -0.0777798 176.868 177.97 -0.126254 -176.037 -4.40315 0.0842274 -0.87724 2.3701 -0.0334797 176.598 
7.78349 11.9015 -11.1355 94.3146 63.9701 -2.5717 -1.53272 0.271448 -0.0790232 1.46577 0.0822001 0.257095 -5.25822 1.12019 -0.715139 8.50682 2.09786 -0.915625 5.37962 -3.81907 -112.15 7.69109 0.427842 4.39742 -0.241615 -2.76376 174.459 -174.962 -2.21003 -110.677 7.81937 0.453471 4.46553 0.0394844 0.451378 174.457 -7.89598 -0.513851 -177.09 -16.7203 -0.190213 -1.01599 12.1182 -2.18504 178.202 171.12 -1.28059 -178.031 -18.2831 -0.266659 -1.18777 2.20835 0.463156 176.78 
7.7195 11.9166 -11.3088 95.8391 36.4521 -2.88735 -3.15336 0.564048 -0.32933 3.01536 0.170688 0.528345 -10.8376 2.30229 -0.21466 17.6014 4.30799 -2.47292 6.62336 -14.6883 -134.135 15.735 0.86857 9.0385 -0.497067 -5.66986 174.438 -172.182 -8.71641 -132.214 16.02 0.925864 9.19307 0.0798774 0.913252 174.456 -12.0904 -0.79062 -178.241 -25.3333 -0.578216 -1.17072 20.1466 -4.41965 179.616 163.825 -2.46581 179.858 -33.0067 -0.637934 -1.5177 2.03635 0.991351 176.974 
7.65683 11.9302 -11.4623 96.728 11.9573 -3.45994 -4.59142 0.814307 -0.553887 4.39511 0.246581 0.771292 -15.8308 3.36079 0.242385 25.8452 6.28006 -3.88216 1.0065 -27.516 -153.936 22.8782 1.25334 13.1951 -0.729907 -8.29105 174.407 -173.57 -16.5904 -151.393 23.2483 1.32742 13.3998 0.118445 1.35413 174.456 -15.7974 -1.04307 -179.28 -32.984 -0.923558 -1.3082 27.4004 -6.4018 -179.122 157.179 -3.58868 177.975 -46.0543 -0.968139 -1.80905 1.87539 1.45693 177.144 
7.59747 11.9399 -11.5664 96.9565 -5.02303 -4.13545 -5.57804 0.958753 -0.714012 5.35188 0.291004 0.943476 -19.3202 4.11037 0.589784 31.735 7.67031 -4.9006 -8.2853 -36.383 -169.731 27.9034 1.52618 16.1378 -0.901628 -10.2002 174.376 -177.252 -22.1524 -165.326 28.1947 1.58387 16.3012 0.152432 1.74253 174.455 -18.265 -1.2345 179.963 -38.2252 -1.16233 -1.40243 32.5069 -7.7547 -178.255 152.318 -4.55979 176.666 -54.904 -1.19591 -2.00379 1.74894 1.76563 177.254 
7.54305 11.9444 -11.6012 96.9189 -11.5326 -4.47989 -5.93586 0.963403 -0.791039 5.7137 0.293313 1.00938 -20.6821 4.4283 0.785723 34.2346 8.25829 -5.35517 -13.6643 -39.633 -176.803 30.0067 1.65822 17.3712 -0.984259 -11.1098 174.359 -179.253 -24.0949 -170.988 30.0042 1.6578 17.3696 0.180586 2.06415 174.453 -18.9839 -1.34065 179.592 -40.0773 -1.25202 -1.43573 34.5113 -8.22936 -177.952 150.01 -5.32226 176.169 -57.9225 -1.28123 -2.06465 1.69726 1.84619 177.28 
7.49214 11.9453 -11.5865 96.924 -10.5785 -4.40207 -5.84495 0.867813 -0.80836 5.65085 0.265452 0.99971 -20.52 4.43797 0.872971 34.2871 8.2763 -5.40241 -13.4717 -39.7001 -176.068 30.0382 1.69602 17.3836 -1.00217 -11.3056 174.355 -178.795 -23.7774 -170.297 29.5866 1.60725 17.1285 0.204544 2.33776 174.452 -18.4517 -1.38599 179.499 -39.5088 -1.23522 -1.4255 34.2795 -8.07816 -178.055 149.551 -5.93824 176.255 -56.7728 -1.26479 -2.02978 1.6984 1.76417 177.247 
7.44214 11.9441 -11.5521 96.9394 -6.62601 -4.16963 -5.57278 0.71883 -0.790373 5.42369 0.222436 0.971346 -19.7553 4.32339 0.911822 33.3473 8.06291 -5.2894 -10.9566 -38.4812 -172.172 29.2663 1.70243 16.9205 -0.994445 -11.2204 174.357 -177.371 -22.5591 -167.061 28.2865 1.50839 16.3693 0.22589 2.58143 174.451 -17.4255 -1.40707 179.527 -37.9944 -1.17573 -1.39835 33.1581 -7.67884 -178.32 149.866 -6.49935 176.566 -53.8764 -1.20633 -1.95422 1.6829 1.6305 177.19 
7.39045 11.9424 -11.5277 96.9365 -4.14049 -4.05238 -5.38678 0.563303 -0.761471 5.29267 0.179286 0.981164 -19.3111 4.26848 0.962706 32.8746 7.95604 -5.26407 -9.6623 -37.8231 -169.94 28.956 1.73893 16.7275 -1.00051 -11.2867 174.356 -176.506 -21.7796 -165.098 27.4507 1.43811 15.8832 0.24621 2.81327 174.45 -16.6639 -1.44043 179.52 -37.0089 -1.13734 -1.38087 32.4917 -7.40932 -178.503 149.864 -7.09627 176.744 -51.6547 -1.16559 -1.89298 1.5817 1.55608 177.144 
7.33673 11.9404 -11.5182 96.9405 -3.8608 -4.07839 -5.32938 0.397713 -0.718627 5.30642 0.135905 1.04937 -19.3549 4.30492 1.03626 33.1265 8.01154 -5.37666 -9.98137 -38.1395 -170.055 29.3237 1.81644 16.9326 -1.0277 -11.5851 174.35 -176.308 -21.728 -164.972 27.3096 1.41096 15.8039 0.266805 3.04736 174.449 -16.2949 -1.49988 179.457 -36.811 -1.13113 -1.37772 32.4992 -7.3472 -178.558 149.365 -7.74164 176.721 -50.4959 -1.1526 -1.85455 1.37227 1.56827 177.115 
